# Blender v3.3.1 OBJ File: 'boat.blend'
# www.blender.org
mtllib waterPlane.mtl
o Plane.003
v -58.534031 0.000000 58.534031
v 58.534031 0.000000 58.534031
v -58.534031 0.000000 -58.534031
v 58.534031 0.000000 -58.534031
v -74.580803 0.000000 74.580803
v 74.580803 0.000000 74.580803
v -74.580803 0.000000 -74.580803
v 74.580803 0.000000 -74.580803
vt 0.000000 0.000000
vt 1.000000 0.000000
vt 1.000000 1.000000
vt 0.000000 1.000000
vn 0.0000 1.0000 0.0000
usemtl Material
s off
f 1/1/1 2/2/1 4/3/1 3/4/1
l 1 5
l 6 2
l 3 7
l 4 8
